<svg xmlns="http://www.w3.org/2000/svg" width="1000" height="720" viewBox="0 0 1000 720"><rect width="1000" height="720" fill="#ddd9cc"/><style>text{font-family:'Yu Gothic',Meiryo,sans-serif}</style><rect x="0" y="0" width="1000" height="720" fill="#d3cebf"/><g transform="translate(160 60) rotate(-9 340 290)"><rect x="15" y="18" width="650" height="570" fill="#c0b9a9"/><rect width="650" height="570" fill="#f7f3e7"/><path d="M35 65h580" stroke="#dce0d3"/><path d="M35 96h580" stroke="#dce0d3"/><path d="M35 127h580" stroke="#dce0d3"/><path d="M35 158h580" stroke="#dce0d3"/><path d="M35 189h580" stroke="#dce0d3"/><path d="M35 220h580" stroke="#dce0d3"/><path d="M35 251h580" stroke="#dce0d3"/><path d="M35 282h580" stroke="#dce0d3"/><path d="M35 313h580" stroke="#dce0d3"/><path d="M35 344h580" stroke="#dce0d3"/><path d="M35 375h580" stroke="#dce0d3"/><path d="M35 406h580" stroke="#dce0d3"/><path d="M35 437h580" stroke="#dce0d3"/><path d="M35 468h580" stroke="#dce0d3"/><path d="M35 499h580" stroke="#dce0d3"/><path d="M76 0V570" stroke="#d8b5a4"/><text x="105" y="109" font-size="28" fill="#595b4f">教室を歩いて、マップをつくる。</text><text x="107" y="161" font-size="17" fill="#7a7b6d">まずは、使う人の目線で。</text><path d="M148 223h185v108H148zM363 222h131v108H363zM148 359h129v102H148zM309 359h185v102H309z" fill="none" stroke="#828b75" stroke-width="3"/><path d="M127 343h414M346 212v263" stroke="#aeb69e" stroke-width="2" stroke-dasharray="7 6"/><text x="170" y="283" font-size="20" fill="#69745f">図書室</text><text x="380" y="283" font-size="19" fill="#69745f">自習室</text><text x="331" y="420" font-size="19" fill="#69745f">ラウンジ</text><circle cx="289" cy="346" r="22" fill="none" stroke="#b6674b" stroke-width="3"/><path d="M313 360l68 46" stroke="#b6674b" stroke-width="2"/><text x="106" y="522" font-size="17" fill="#987b65">気づいたことを、持ち帰る。</text></g><path d="M789 104l-94 490" stroke="#67695e" stroke-width="16"/><path d="M696 594l-2 28 12-25" fill="#d6b58c"/></svg>