<svg xmlns="http://www.w3.org/2000/svg" width="1000" height="720" viewBox="0 0 1000 720"><rect width="1000" height="720" fill="#dad6cc"/><style>text{font-family:'Yu Gothic',Meiryo,sans-serif}</style><rect x="80" y="110" width="840" height="510" fill="#c4bdae"/><g transform="translate(150 160) rotate(-5)"><rect width="410" height="275" rx="5" fill="#606a64"/><rect x="17" y="17" width="376" height="239" fill="#ecefe6"/><path d="M40 55h320M40 85h180M40 115h260M40 145h220M40 175h280" stroke="#abb8a0" stroke-width="8"/><path d="M-25 275h460l35 42H-60z" fill="#909991"/></g><g transform="translate(610 310) rotate(9)"><rect width="240" height="260" fill="#f7efdb"/><text x="24" y="55" font-size="22" fill="#766c54">つくったものを</text><text x="24" y="89" font-size="22" fill="#766c54">持ち寄ろう。</text><path d="M25 130h187M25 160h145M25 190h172" stroke="#c3b89c" stroke-width="3"/></g><circle cx="744" cy="205" r="53" fill="#f2eee3"/><circle cx="744" cy="205" r="39" fill="#7b6953"/></svg>